<?xml version="1.0" encoding="UTF-8"?>
<svg id="Calque_2" data-name="Calque 2" xmlns="http://www.w3.org/2000/svg" viewBox="0 0 193.71 63.38">
  <defs>
    <style>
      .cls-1 {
        fill: #cec3b6;
      }
    </style>
  </defs>
  <g id="Calque_1-2" data-name="Calque 1">
    <g>
      <g>
        <polygon class="cls-1" points="4.18 22.14 11.26 22.14 13.54 0 6.47 0 4.18 22.14"/>
        <path class="cls-1" d="M30.63,11.23l.58-5.57h-8.58c-4.36,0-8.26,3.54-8.72,7.9l-.07.68c-.45,4.36,2.72,7.9,7.08,7.9h.68s0,0,.01,0h10.11l.73-7.08h-8.13l6.3-3.83ZM22.31,9.94c-.97,1.35-1.88,2.83-2.71,4.38-.21.4-.63.64-1.04.64-.14,0-.28-.03-.41-.09-.51-.23-.7-.86-.41-1.4.88-1.65,1.85-3.21,2.88-4.65.36-.5,1.03-.66,1.5-.35.47.31.56.96.2,1.46Z"/>
      </g>
      <g>
        <path class="cls-1" d="M31.52,45.7c.86-1.63,1.43-3.43,1.62-5.31.78-7.54-4.7-13.65-12.23-13.65h-10.52s-6.68,0-6.68,0L0,62.56h11.45l.88-8.53h7.16l-.55,5.3,2.9,3.23h8.22l.79-7.62c.28-2.75-1.1-5.12-3.32-6.22h0s3.99-3.02,3.99-3.02ZM21.35,32.67c.87-.48,1.89-.19,2.28.63,1.25,2.63,2.29,5.66,3.11,9,.22.9-.36,1.88-1.29,2.19-.19.06-.39.09-.57.09-.71,0-1.33-.45-1.51-1.16-.76-3.14-1.74-5.97-2.89-8.41-.39-.82,0-1.87.87-2.35Z"/>
        <path class="cls-1" d="M85.83,35.9h-3.26l.95-9.16h-11.45l-3.7,35.82h1.38,0s13.33,0,13.33,0c3.68,0,7.17-1.49,9.83-3.9,2.66-2.41,4.5-5.74,4.88-9.43.76-7.36-4.59-13.33-11.95-13.33ZM89.26,51.81c-.21.08-.43.12-.64.12-.69,0-1.29-.41-1.49-1.09-.77-2.66-1.63-5.49-2.74-8.12-.35-.84.07-1.88.96-2.32.89-.44,1.89-.12,2.25.72,1.18,2.78,2.07,5.71,2.87,8.47.26.88-.28,1.88-1.2,2.23Z"/>
        <path class="cls-1" d="M119.02,35.08h-4.31c-7.72,0-14.63,6.26-15.43,13.98l-.03.34c-.8,7.72,4.82,13.98,12.54,13.98h4.31c7.72,0,14.63-6.26,15.43-13.98l.03-.34c.8-7.72-4.82-13.98-12.54-13.98ZM117.8,42.52c-3,2.04-6,4.83-8.93,8.31-.38.46-.93.7-1.46.7-.36,0-.7-.11-.99-.34-.71-.56-.76-1.64-.11-2.41,3.16-3.76,6.44-6.8,9.74-9.05.82-.56,1.88-.39,2.37.37.48.77.2,1.84-.62,2.4Z"/>
        <path class="cls-1" d="M61.99,44.9l.93-9.01h-13.88c-7.06,0-13.37,5.72-14.1,12.78l-.11,1.1c-.73,7.06,4.4,12.78,11.46,12.78h1.1s.01,0,.02,0h16.37l1.18-11.45h-13.15l10.19-6.2ZM43.65,50.19c-.38.49-.95.75-1.5.75-.33,0-.66-.1-.93-.3-.73-.53-.82-1.6-.21-2.39,2.19-2.79,4.45-5.32,6.72-7.52.72-.69,1.81-.73,2.44-.08.63.65.55,1.74-.17,2.43-2.14,2.07-4.28,4.46-6.35,7.1Z"/>
        <path class="cls-1" d="M155.57,35.08h-.98c-3.02,0-5.84,1.63-7.52,4.05h-1.15l-2.9-3.23h-8.22l-2.76,26.66h14.53c-.45-3.1-1.09-6.52-2.07-9.8-.55-1.84-1.2-3.64-2-5.32-.39-.82,0-1.87.87-2.35.66-.36,1.41-.29,1.9.13,0,0,.12.11.17.17s.15.21.15.21c.02.04.04.07.06.11,2.51,5.3,3.71,11.59,4.45,16.84h10.86l1.99-19.23c.47-4.56-2.84-8.25-7.4-8.25Z"/>
        <path class="cls-1" d="M181.69,35.9h-13.33l-2.76,26.66h13.33c3.68,0,7.17-1.49,9.83-3.9,2.66-2.41,4.5-5.74,4.88-9.43.76-7.36-4.59-13.33-11.95-13.33ZM185.88,52.61c-.27.14-.56.2-.83.2-.61,0-1.17-.33-1.42-.91-.91-2.11-1.99-3.68-3.2-4.66-1.23-.97-2.84-1.53-4.68-1.61-.94-.04-1.6-.85-1.46-1.8.14-.95,1.02-1.68,1.97-1.64,2.51.12,4.76.9,6.49,2.28h.01c1.59,1.3,2.95,3.25,4.06,5.8.36.84-.06,1.88-.94,2.33Z"/>
      </g>
    </g>
  </g>
</svg>