<?xml version="1.0" encoding="UTF-8"?>
<svg id="Calque_2" data-name="Calque 2" xmlns="http://www.w3.org/2000/svg" viewBox="0 0 327.77 46.76">
  <defs>
    <style>
      .cls-1 {
        fill: #074459;
      }
    </style>
  </defs>
  <g id="Calque_1-2" data-name="Calque 1">
    <g>
      <path class="cls-1" d="M120.77,24.2c1.1-2.08,1.82-4.37,2.07-6.78.99-9.62-6-17.42-15.61-17.42h-13.43s-8.53,0-8.53,0l-4.73,45.72h14.61l1.13-10.88h9.13l-.7,6.76,3.7,4.12h10.49l1.01-9.73c.36-3.52-1.4-6.54-4.24-7.94h0s5.1-3.85,5.1-3.85ZM107.79,7.57c1.11-.61,2.42-.25,2.92.8,1.59,3.35,2.93,7.22,3.96,11.49.28,1.15-.46,2.39-1.65,2.79-.25.08-.49.12-.73.12-.91,0-1.7-.57-1.92-1.48-.97-4.01-2.22-7.62-3.69-10.73-.5-1.05,0-2.39,1.11-3Z"/>
      <polygon class="cls-1" points="0 45.72 14.61 45.72 19.34 0 4.73 0 0 45.72"/>
      <path class="cls-1" d="M190.08,11.69h-4.16L187.13,0h-14.61l-4.73,45.72h1.76,0s17.01,0,17.01,0c4.7,0,9.15-1.91,12.55-4.98,3.4-3.08,5.74-7.33,6.23-12.03.97-9.4-5.86-17.01-15.26-17.01ZM194.46,32c-.27.1-.55.15-.82.15-.88,0-1.65-.53-1.9-1.4-.98-3.4-2.08-7-3.5-10.36-.45-1.07.09-2.4,1.23-2.97,1.13-.56,2.42-.15,2.87.92,1.5,3.55,2.64,7.29,3.66,10.81.33,1.13-.36,2.4-1.54,2.84Z"/>
      <path class="cls-1" d="M232.44,10.65h-5.5c-9.85,0-18.67,7.99-19.69,17.84l-.04.43c-1.02,9.85,6.15,17.84,16,17.84h5.5c9.85,0,18.67-7.99,19.69-17.84l.04-.43c1.02-9.86-6.15-17.84-16-17.84ZM230.89,20.14c-3.83,2.6-7.66,6.17-11.4,10.61-.49.58-1.19.89-1.86.89-.45,0-.9-.14-1.26-.43-.9-.72-.96-2.09-.14-3.07,4.04-4.8,8.22-8.68,12.43-11.54,1.05-.72,2.4-.5,3.02.48.61.98.26,2.35-.79,3.07Z"/>
      <path class="cls-1" d="M54.61,23.19l1.19-11.5h-17.71c-9.01,0-17.07,7.31-18,16.31l-.15,1.41c-.93,9.01,5.62,16.31,14.63,16.31h1.4s.01,0,.02,0h20.89l1.51-14.61h-16.78l13-7.92ZM37.44,20.52c-2,2.79-3.88,5.84-5.6,9.05-.44.83-1.3,1.33-2.15,1.33-.29,0-.58-.06-.85-.18-1.06-.48-1.44-1.77-.85-2.88,1.82-3.4,3.82-6.63,5.94-9.61.74-1.03,2.12-1.36,3.09-.73.97.63,1.15,1.98.41,3.02Z"/>
      <path class="cls-1" d="M159.65,23.19l1.19-11.5h-17.71c-9.01,0-17.06,7.31-18,16.31l-.15,1.41c-.93,9.01,5.61,16.31,14.62,16.31h1.4s.01,0,.02,0h20.89l1.51-14.61h-16.78l13-7.92ZM136.25,29.94c-.49.63-1.21.96-1.92.96-.43,0-.84-.12-1.19-.38-.93-.68-1.05-2.05-.27-3.05,2.79-3.56,5.68-6.79,8.58-9.59.92-.89,2.31-.94,3.11-.11.8.83.71,2.21-.21,3.1-2.73,2.64-5.46,5.69-8.11,9.07Z"/>
      <path class="cls-1" d="M279.1,10.65h-1.24c-3.86,0-7.45,2.07-9.6,5.17h-1.47l-3.7-4.12h-10.49l-3.52,34.03h18.54c-.58-3.96-1.39-8.32-2.64-12.51-.7-2.35-1.53-4.65-2.55-6.79-.5-1.05,0-2.39,1.12-3,.84-.46,1.8-.36,2.43.17,0,0,.15.14.22.22s.2.27.2.27c.03.05.05.09.07.14,3.2,6.76,4.74,14.79,5.68,21.49h13.86l2.54-24.54c.6-5.81-3.63-10.53-9.44-10.53Z"/>
      <path class="cls-1" d="M312.42,11.69h-17.01l-3.52,34.03h17.01c4.7,0,9.15-1.91,12.55-4.98,3.4-3.08,5.74-7.33,6.23-12.03.97-9.4-5.86-17.01-15.26-17.01ZM317.77,33.02c-.35.18-.71.26-1.06.26-.78,0-1.5-.42-1.82-1.16-1.17-2.69-2.54-4.69-4.08-5.95-1.56-1.24-3.63-1.95-5.97-2.06-1.21-.05-2.04-1.08-1.86-2.29.18-1.21,1.3-2.15,2.51-2.09,3.21.15,6.08,1.15,8.29,2.91h.02c2.02,1.66,3.76,4.15,5.18,7.41.46,1.07-.08,2.4-1.2,2.97Z"/>
    </g>
  </g>
</svg>