<?xml version="1.0" encoding="UTF-8"?>
<svg id="Calque_2" data-name="Calque 2" xmlns="http://www.w3.org/2000/svg" viewBox="0 0 320.76 45.76">
  <defs>
    <style>
      .cls-1 {
        fill: #f4c941;
      }
    </style>
  </defs>
  <g id="Calque_1-2" data-name="Calque 1">
    <g>
      <polygon class="cls-1" points="0 44.74 14.3 44.74 18.92 0 4.62 0 0 44.74"/>
      <path class="cls-1" d="M305.74,11.44h-16.65l-3.44,33.3h16.65c9.2,0,17.42-7.45,18.37-16.65.95-9.2-5.73-16.65-14.93-16.65ZM305.04,23.19h.72v-.72h1.48v.72h.72v1.47h-.72v.72h-1.48v-.72h-.72v-1.47ZM292.86,21.01v-1.47h.72v-.72h1.47v.72h.72v1.47h-.72v.72h-1.47v-.72h-.72ZM296.98,24.66h-.72v.72h-1.47v-.72h-.72v-1.47h.72v-.72h1.47v.72h.72v1.47ZM296.51,21.01v-1.47h.72v-.72h1.47v.72h.72v1.47h-.72v.72h-1.47v-.72h-.72ZM300.64,24.66h-.72v.72h-1.47v-.72h-.72v-1.47h.72v-.72h1.47v.72h.72v1.47ZM300.17,21.01v-1.47h.72v-.72h1.47v.72h.72v1.47h-.72v.72h-1.47v-.72h-.72ZM302.1,25.38v-.72h-.72v-1.47h.72v-.72h1.47v.72h.72v1.47h-.72v.72h-1.47ZM302.6,28.31v-1.47h.72v-.72h1.47v.72h.72v1.47h-.72v.72h-1.47v-.72h-.72ZM306.73,31.97h-.72v.72h-1.47v-.72h-.72v-1.47h.72v-.72h1.47v.72h.72v1.47ZM306.26,28.31v-1.47h.72v-.72h1.47v.72h.72v1.47h-.72v.72h-1.47v-.72h-.72ZM307.47,31.97v-1.47h.72v-.72h1.47v.72h.72v1.47h-.72v.72h-1.47v-.72h-.72ZM311.6,35.62h-.72v.72h-1.47v-.72h-.72v-1.47h.72v-.72h1.47v.72h.72v1.47ZM312.82,28.31h-.72v.72h-1.47v-.72h-.72v-1.47h.72v-.72h1.47v.72h.72v1.47Z"/>
      <path class="cls-1" d="M273.13,10.42h-1.22c-3.78,0-7.28,2.03-9.39,5.06h-1.44l-3.62-4.04h-10.27l-3.44,33.3h14.3s21.83,0,21.83,0l2.48-24.02c.59-5.69-3.55-10.31-9.24-10.31ZM264.1,34.15v1.47h-.72v.72h-1.47v-.72h-.72v-1.47h.72v-.72h1.47v.72h.72ZM262.89,30.49v1.47h-.72v.72h-1.47v-.72h-.72v-1.47h.72v-.72h1.47v.72h.72ZM261.67,26.84v1.47h-.72v.72h-1.47v-.72h-.72v-1.47h.72v-.72h1.47v.72h.72ZM260.45,23.19v1.47h-.72v.72h-1.47v-.72h-.72v-1.47h.72v-.72h1.47v.72h.72ZM256.32,19.53h.72v-.72h1.47v.72h.72v1.47h-.72v.72h-1.47v-.72h-.72v-1.47ZM249.02,21.01v-1.47h.72v-.72h1.47v.72h.72v1.47h-.72v.72h-1.47v-.72h-.72ZM253.14,24.66h-.72v.72h-1.47v-.72h-.72v-1.47h.72v-.72h1.47v.72h.72v1.47ZM252.67,21.01v-1.47h.72v-.72h1.47v.72h.72v1.47h-.72v.72h-1.47v-.72h-.72ZM253.89,24.66v-1.47h.72v-.72h1.48v.72h.72v1.47h-.72v.72h-1.48v-.72h-.72ZM255.11,28.31v-1.47h.72v-.72h1.47v.72h.72v1.47h-.72v.72h-1.47v-.72h-.72ZM256.32,31.97v-1.47h.72v-.72h1.47v.72h.72v1.47h-.72v.72h-1.47v-.72h-.72ZM257.54,35.62v-1.47h.72v-.72h1.47v.72h.72v1.47h-.72v.72h-1.47v-.72h-.72ZM258.76,39.27v-1.47h.72v-.72h1.47v.72h.72v1.47h-.72v.72h-1.47v-.72h-.72ZM262.89,42.93h-.72v.72h-1.47v-.72h-.72v-1.47h.72v-.72h1.47v.72h.72v1.47ZM262.41,39.27v-1.47h.72v-.72h1.47v.72h.72v1.47h-.72v.72h-1.47v-.72h-.72ZM266.54,42.93h-.72v.72h-1.47v-.72h-.72v-1.47h.72v-.72h1.47v.72h.72v1.47Z"/>
      <path class="cls-1" d="M227.47,10.42h-5.38c-9.64,0-18.27,7.82-19.27,17.46l-.04.42c-1,9.64,6.01,17.46,15.66,17.46h5.38c9.64,0,18.27-7.82,19.27-17.46l.04-.42c1-9.64-6.01-17.46-15.66-17.46ZM216.13,19.53h.72v-.72h1.47v.72h.72v1.47h-.72v.72h-1.47v-.72h-.72v-1.47ZM212.48,19.53h.72v-.72h1.47v.72h.72v1.47h-.72v.72h-1.47v-.72h-.72v-1.47ZM210.04,23.19h.72v-.72h1.47v.72h.72v1.47h-.72v.72h-1.47v-.72h-.72v-1.47ZM207.61,26.84h.72v-.72h1.47v.72h.72v1.47h-.72v.72h-1.47v-.72h-.72v-1.47ZM205.17,31.97v-1.47h.72v-.72h1.47v.72h.72v1.47h-.72v.72h-1.47v-.72h-.72ZM209.3,35.62h-.72v.72h-1.47v-.72h-.72v-1.47h.72v-.72h1.47v.72h.72v1.47ZM211.74,31.97h-.72v.72h-1.47v-.72h-.72v-1.47h.72v-.72h1.47v.72h.72v1.47ZM214.17,28.31h-.72v.72h-1.47v-.72h-.72v-1.47h.72v-.72h1.47v.72h.72v1.47ZM213.7,24.66v-1.47h.72v-.72h1.47v.72h.72v1.47h-.72v.72h-1.47v-.72h-.72ZM217.82,28.31h-.72v.72h-1.47v-.72h-.72v-1.47h.72v-.72h1.47v.72h.72v1.47ZM220.26,24.66h-.72v.72h-1.47v-.72h-.72v-1.47h.72v-.72h1.47v.72h.72v1.47ZM222.69,21.01h-.72v.72h-1.48v-.72h-.72v-1.47h.72v-.72h1.48v.72h.72v1.47ZM226.35,21.01h-.72v.72h-1.47v-.72h-.72v-1.47h.72v-.72h1.47v.72h.72v1.47Z"/>
      <path class="cls-1" d="M186.02,11.44h-4.07L183.13,0h-14.3l-4.62,44.74h1.72s16.65,0,16.65,0c9.2,0,17.42-7.45,18.37-16.65.95-9.2-5.73-16.65-14.93-16.65ZM187.38,23.19v1.47h-.72v.72h-1.47v-.72h-.72v-1.47h.72v-.72h1.47v.72h.72ZM183.25,19.53h.72v-.72h1.47v.72h.72v1.47h-.72v.72h-1.47v-.72h-.72v-1.47ZM179.6,21.01v-1.47h.72v-.72h1.47v.72h.72v1.47h-.72v.72h-1.47v-.72h-.72ZM180.82,24.66v-1.47h.72v-.72h1.47v.72h.72v1.47h-.72v.72h-1.47v-.72h-.72ZM182.03,28.31v-1.47h.72v-.72h1.47v.72h.72v1.47h-.72v.72h-1.47v-.72h-.72ZM186.16,31.97h-.72v.72h-1.47v-.72h-.72v-1.47h.72v-.72h1.47v.72h.72v1.47ZM188.59,28.31h-.72v.72h-1.48v-.72h-.72v-1.47h.72v-.72h1.48v.72h.72v1.47ZM188.12,24.66v-1.47h.72v-.72h1.47v.72h.72v1.47h-.72v.72h-1.47v-.72h-.72ZM192.25,28.31h-.72v.72h-1.47v-.72h-.72v-1.47h.72v-.72h1.47v.72h.72v1.47Z"/>
      <path class="cls-1" d="M143.51,30.44l12.73-7.75.75-7.22.42-4.04h-17.34c-8.82,0-16.7,7.15-17.61,15.96l-.14,1.38c-.91,8.81,5.5,15.96,14.31,15.96h1.37s.06,0,.09,0h20.37l1.48-14.3h-16.43ZM132.1,19.53h.72v-.72h1.47v.72h.72v1.47h-.72v.72h-1.47v-.72h-.72v-1.47ZM128.45,19.53h.72v-.72h1.47v.72h.72v1.47h-.72v.72h-1.47v-.72h-.72v-1.47ZM126.01,24.66v-1.47h.72v-.72h1.47v.72h.72v1.47h-.72v.72h-1.47v-.72h-.72ZM130.14,28.31h-.72v.72h-1.47v-.72h-.72v-1.47h.72v-.72h1.47v.72h.72v1.47ZM129.67,24.66v-1.47h.72v-.72h1.47v.72h.72v1.47h-.72v.72h-1.47v-.72h-.72ZM133.79,28.31h-.72v.72h-1.47v-.72h-.72v-1.47h.72v-.72h1.47v.72h.72v1.47ZM136.23,24.66h-.72v.72h-1.48v-.72h-.72v-1.47h.72v-.72h1.48v.72h.72v1.47ZM136.47,21.72v-.72h-.72v-1.47h.72v-.72h1.47v.72h.72v1.47h-.72v.72h-1.47ZM139.88,24.66h-.72v.72h-1.47v-.72h-.72v-1.47h.72v-.72h1.47v.72h.72v1.47ZM142.32,21.01h-.72v.72h-1.47v-.72h-.72v-1.47h.72v-.72h1.47v.72h.72v1.47Z"/>
      <path class="cls-1" d="M104.93,0h-7.19s-14.3,0-14.3,0l-4.63,44.74h14.3l1.1-10.65h8.94l-.68,6.62,3.62,4.04h10.26l.98-9.52c.36-3.44-1.36-6.4-4.14-7.77l4.99-3.77c1.07-2.04,1.78-4.28,2.02-6.63C121.18,7.63,114.34,0,104.93,0ZM106.53,8.57h.72v-.72h1.47v.72h.72v1.47h-.72v.72h-1.47v-.72h-.72v-1.47ZM102.87,8.57h.72v-.72h1.47v.72h.72v1.47h-.72v.72h-1.47v-.72h-.72v-1.47ZM98.47,10.05h-.72v.72h-1.47v-.72h-.72v-1.47h.72v-.72h1.47v.72h.72v1.47ZM99.22,10.05v-1.47h.72v-.72h1.48v.72h.72v1.47h-.72v.72h-1.48v-.72h-.72ZM100.44,13.7v-1.47h.72v-.72h1.47v.72h.72v1.47h-.72v.72h-1.47v-.72h-.72ZM104.56,17.35h-.72v.72h-1.47v-.72h-.72v-1.47h.72v-.72h1.47v.72h.72v1.47ZM104.09,13.7v-1.47h.72v-.72h1.47v.72h.72v1.47h-.72v.72h-1.47v-.72h-.72ZM108.22,17.35h-.72v.72h-1.47v-.72h-.72v-1.47h.72v-.72h1.47v.72h.72v1.47ZM107.74,13.7v-1.47h.72v-.72h1.47v.72h.72v1.47h-.72v.72h-1.47v-.72h-.72ZM111.87,17.35h-.72v.72h-1.47v-.72h-.72v-1.47h.72v-.72h1.47v.72h.72v1.47Z"/>
      <path class="cls-1" d="M40.72,30.44l12.73-7.75.75-7.22.42-4.04h-17.34c-8.81,0-16.7,7.15-17.61,15.96l-.14,1.38c-.91,8.81,5.5,15.96,14.31,15.96h1.38s.06,0,.09,0h20.37l1.48-14.3h-16.43ZM29.8,19.53h.72v-.72h1.47v.72h.72v1.47h-.72v.72h-1.47v-.72h-.72v-1.47ZM26.15,19.53h.72v-.72h1.47v.72h.72v1.47h-.72v.72h-1.47v-.72h-.72v-1.47ZM23.71,24.66v-1.47h.72v-.72h1.47v.72h.72v1.47h-.72v.72h-1.47v-.72h-.72ZM27.84,28.31h-.72v.72h-1.47v-.72h-.72v-1.47h.72v-.72h1.47v.72h.72v1.47ZM27.37,24.66v-1.47h.72v-.72h1.47v.72h.72v1.47h-.72v.72h-1.47v-.72h-.72ZM31.49,28.31h-.72v.72h-1.47v-.72h-.72v-1.47h.72v-.72h1.47v.72h.72v1.47ZM33.93,24.66h-.72v.72h-1.48v-.72h-.72v-1.47h.72v-.72h1.48v.72h.72v1.47ZM33.46,21.01v-1.47h.72v-.72h1.47v.72h.72v1.47h-.72v.72h-1.47v-.72h-.72ZM37.58,24.66h-.72v.72h-1.48v-.72h-.72v-1.47h.72v-.72h1.48v.72h.72v1.47ZM40.02,21.01h-.72v.72h-1.47v-.72h-.72v-1.47h.72v-.72h1.47v.72h.72v1.47Z"/>
    </g>
  </g>
</svg>