<?xml version="1.0" encoding="UTF-8"?>
<svg id="Calque_2" data-name="Calque 2" xmlns="http://www.w3.org/2000/svg" viewBox="0 0 142.34 52.01">
  <defs>
    <style>
      .cls-1 {
        fill: #1a1a1a;
      }
    </style>
  </defs>
  <g id="Calque_1-2" data-name="Calque 1">
    <g>
      <g>
        <path class="cls-1" d="M99.82,14.15h-27.93v11.14h27.93c1.54,0,2.93-.63,3.93-1.63.99-1.01,1.62-2.39,1.62-3.93,0-3.08-2.5-5.58-5.56-5.58Z"/>
        <rect class="cls-1" x="71.89" y="26.73" width="16.03" height="11.14"/>
        <path class="cls-1" d="M89.36,28.16c0,5.35,4.35,9.7,9.7,9.7h6.33v-11.14h-16.03v1.44Z"/>
        <rect class="cls-1" x="36.96" y="14.15" width="16.03" height="23.71"/>
        <path class="cls-1" d="M54.42,32.52v5.34h16.03v-11.14h-10.24c-3.2,0-5.79,2.59-5.79,5.79Z"/>
      </g>
      <path class="cls-1" d="M71.17,0C31.86,0,0,11.65,0,26.01s31.86,26.01,71.17,26.01,71.17-11.63,71.17-26.01S110.48,0,71.17,0ZM119.69,39.47c-12.88,4.71-30.1,7.3-48.52,7.3s-35.64-2.59-48.52-7.3c-12.82-4.69-17.38-10.02-17.38-13.46s4.56-8.77,17.38-13.46c12.88-4.71,30.12-7.3,48.52-7.3s35.64,2.59,48.52,7.3c12.84,4.69,17.4,10.03,17.4,13.46s-4.56,8.77-17.4,13.46Z"/>
    </g>
  </g>
</svg>