<?xml version="1.0" encoding="UTF-8"?>
<svg id="Calque_2" data-name="Calque 2" xmlns="http://www.w3.org/2000/svg" viewBox="0 0 163.02 48.9">
  <defs>
    <style>
      .cls-1 {
        fill: #074459;
      }
    </style>
  </defs>
  <g id="Calque_1-2" data-name="Calque 1">
    <g>
      <path class="cls-1" d="M64.96,43.48c-.46.39-.61,1.42-1.29,1.72-.92.41-1.64,1.06-2.59,1.4l-1.3.47c-.51-.31-1.36.09-1.86-.08-.51-.18-.92-.66-1.5-.72-.4-.04-1.12-.37-1.45-.56-.73-.39-1.78-2.24-2.24-2.92-1.46.69-2.44,2.56-4.5,3.08-.5.13-1.1.42-1.56.4-.56-.01-1.37.06-1.89-.11-.42-.14-3.2-1.68-3.45-1.96-4.7-5.38.18-16.5,3.94-20.99l2.68-3.2,3.57-3.67c-1.65.45-3.27,1.28-4.63,2.29-.12.09-.45-.23-.57-.27-.13-.05-.33.39-.47.39-1.1,0-2.03.62-3.02.88-.7.18-1.36-.05-1.91.75l-2.95,4.32-4.04,6.35c-.82,1.3-1.69,2.46-2.68,3.62-.38.45-.54,1.22-1.11,1.49-.67.32-.89.98-1.41,1.4l-2.59,2.15-1.71,1.02c-2.55,1.52-2.34.24-2.91,1.13-.36.55-.89.37-1.4.39-.65.02-1.26.73-1.95.45-.27-.11-.5.16-.81.25-2-1.41-.12.43-3.81-.55-1.05-.28-2.04-1.39-3.12-1.28-1.04.1-1.37-.59-1.93-1.16-1.5-1.5-1.81-4.09-.65-5.38,1.52-1.7,3.8-1.24,5.86-.96.98.14,1.88.25,2.85.5.38.1,5.28-.03,6.32-.16,5.85-.73,11.25-9,14.22-13.64.35-.54.73-1,.31-1.56-.39-.51-.87-.58-1.54-.47-.2-.51-2.16-2.52-2.85-2.36-.05-.44-.49-.76-.66-1.04-.97-1.63-.79-3.47-.39-5.2.36-1.55,1.18-2.71,2.29-3.81,2.33-2.3,5.46-3.72,8.74-3.26.99.14,1.5.64,2.16,1.13,2.79,2.08,2.13,5.65.8,8.42,2.12.18,4.83-.99,6.78-1.71l2.05-.76c1.66-.62,4.15-2.12,5.74-.72.45.39.9,1.11.4,1.81-2.96,4.11-5.71,8.28-8.26,12.7-.09.15-2.27,3.81-2.12,3.48-.58,1.23-1.53,3.36-2.35,4.37-.29.36-.18,1.23-.73,1.64-.43.32-.42.83-.55,1.28l-.45,1.57c-.48,1.67-.82,3.34-.31,5.04.72,2.41,5.22-1.2,6.38-1.98.67-1.43.77-3.03,1.35-4.53,1.15-3.01,2.8-5.68,5.51-7.5-1.5-4.99,2.96-11.27,6.75-14.03,1.59-1.16,3.77-1.47,5.46-.48.45.26.5.88,1.13,1.04s1.69.88,1.64,1.61c-.04.6.11.68.31,1.14.59,1.39.17,3.16-.54,4.43-.24.24-.66.24-.91.42-.31.94-.85,1.72-1.92,1.95-1.43.32-1.55,1.15-3.34-.51-.53-.5-1.13-.52-1.74-.69-1.23-2.5-.17-.68-.82-2.63-1.34.39-3.97,6.03-2.43,6.94.9.4,4.05-.27,4.64,1.31.23.63-.43,1.6-.94,1.88-1.84,1-4,.37-5.68-.35-1.99.69-3.04,3.17-3.29,5.09-.16,1.23-.6,2.17-.25,3.31.3.98.88,2.29,2.09,2.16,1.47-.17,1.49-2.74,3.85-3.16.83-.15,1.47.33,2.21.88.92.68.44,1.65.49,2.58.03.59-.18,1.03-.22,1.49-.08.9-.03,1.47-.94,2.25ZM34.65,9.18c1.26-2.7,3.68-4.15,6.37-5.41-2.9.35-5.26,2.43-6.81,4.68-1.39,2.01-.99,4.45.66,6.1.77.77,1.69,1.42,2.87,1.52.55.05.67-.56.75-1.04.19-1.13-5.7-1.86-3.84-5.84ZM58.33,11.89c.59-.14,1.37-1.46.84-1.88-.13-.1-.52-.24-.75-.13-3.26,1.53-6.58,2.33-10.1,3.57,3.32.03,6.28-1.46,9.27-2.54.12.38.25,1.09.74.98ZM70.78,21.09c.97.27,1.94-.13,2.36-1.25,1.16-3.06-1.71-7.97-3.79-6.35,1.8.74,2.6,2.2,2.6,4.04,0,2.33-2.11,1.4-2,2.75.04.51.34.67.83.81ZM17.15,35.74l-3.1-.76c-1.63-.4-4.64-.8-5.47,1.03-.18.4.25.74.49.8.3.07.69,0,.91-.31,1.77-2.62,4.94-.31,7.17-.76ZM57.6,45.16c-1.82-1.15-3.39-2.14-3.55-4.18l-.28-3.41c-1.06,2.86.13,7.29,3.83,7.58Z"/>
      <path class="cls-1" d="M154.9,39.77l-1.26,1.2c-.17.17-7.21,4.04-8.31,4.14-.49,2.83-1.44,1.3-3.64,3.61-.47.49-1.41-.13-1.93-.26-.76-.2-.91-.69-1.29-1.19-2.1-2.8-.57-5.68.5-8.61.94-2.59-.99-14.14-1.22-17.22l-.33-4.49c-.06-.79.38-1.76-.06-2.47-.76-1.24-1.17-2.88.12-3.95,2.77-2.3,3.12-.75,4.15-1.07,1.33-.42,2.43-.91,3.8-1.11,2.87-.43,5.54-.25,8.27.77,1.34.5,2.84.88,3.58,2.32,1.05-.46,4.15,3.65,4.1,3.91-.1.56.49.69.53,1.01.05.49.28.75.42,1.15,1.13,3.16.43,4.42.64,5.83.11.74-.54,3.38-.9,4.36-.21.56-.17,1.29-.74,1.7.03,1.28-1.66,4.19-2.4,5.47-1.44,2.48-2.11,3.03-4.05,4.89ZM144.06,11.16c1.39-.6,2.86-.88,4.31-1.22,1.25-.29,2.36.17,3.67-.08-1.91-1.46-10.84.65-9.62,1.89.54.55,1.55-.55,1.64-.59ZM154.37,21.73c-.25-1.31-.85-3.08-1.85-3.98-.11-.1-.07-.49-.17-.62-.07-.1-.37,0-.53-.13-.57-.61-1.46-.46-2.14-.77l-1.06-.47c-1.35-.6-2.88.02-3.38-.58-.48.52-.2,1.04-.21,1.6-.01,2.62-.17,3.91-.48,6.46l-.65,5.51c-.27,2.29-.71,6.92.12,9,.16.39.28.95.5,1.28l.79,1.17c.72-.16,1.21-.73,1.81-1.03,7.18-3.62,8.68-9.94,7.25-17.44ZM138.7,15.93c-.37.58.27,2.97.53,3.69.16-.32.22-4.87-.53-3.69ZM139.71,24.36c.26-.68.03-1.24-.21-1.78-.16.71.07,1.22.21,1.78ZM147.61,43.34l3.02-1.96c3.29-2.14,6.69-4.71,8.13-8.6-1.92,2.23-3.11,4.68-5.53,6.28-2.04,1.35-4.25,2.23-6.56,2.98-.61.2-.65.85-.34,1.26.24.31.75.38,1.28.04Z"/>
      <path class="cls-1" d="M124.66,34c-.39-1.41-.78-4.03-1.15-3.84-.39.2-.07.29.03.52.35.81.19,1.68.22,2.53l.13,3.67c.05,1.31,0,2.46-.36,3.73.05-.17-.17,2.45-.54,2.66-.58.32-.54.96-.29,1.58-.27.18-.45.1-.55.2-.17.16-.16.67-.26.87-.2.39-.77.38-1.1.48-.43,1.65-1.86,1.3-2.91,1.33-1.85.06-3.14-.33-3.72-2.3-.29-.97-.67-2.47.32-3.36.52-.47,1.12-.67,1.91-.68,1.77-4.52,2.61-11.7,2.81-16.57.24-5.72.15-10.32,1.4-16.09.17-.77.25-1.77,1.24-2.02.71-.18,1.7.48,1.92,1.22.77,2.65-.45,4.05.73,8.72.53,2.13,1.2,4.09,2.21,6.05.58,1.12.89,2.32,1.86,3.22.05-1.23.06-2.29.03-3.41l-.17-5.41c-.11-3.54-.71-10.25.69-13.25.56-1.21,1.11-2.06,2.51-2.54.4-.14.63-1.08,1.43-.89.45.11.94-.44,1.4-.41.63.04,1.51.02,2.05.33.51.29.77.91,1.47.91.91,0,1.23.72,1.31,1.53.03.32.89.83.61,1.17-.41.51-.12,1.2-.31,1.64-.16.36-1.08.52-1.15,1.12l-1.18.55c-1.51.71-1.88.12-2.28.28-.22.1.03.5-.1.73-.65,1.15-1.16,2.28-1.68,3.46-.22.49-.98,4.36-.99,5.08-.03,2.28-.25,3.03-.3,4.91-.12,5.12-.1,10.49,2.19,15.08.51,1.02,1.85,4.7,1.98,5.77.1.79-.24,1.75-.33,2.55-.04.38-.58.86-.58,1.39-.18.28-.93.63-1.27.67-2.28.22-2.12,1.29-2.94.79-.17-.1-.22-.32-.1-.66-.43-.22-.82-.02-1.34-.1-.07-.65-.63-.72-1.08-.8-.31-.76-.98-1.75-1.1-2.59-.1-.65.02-1.03-.35-1.6-.8-1.22-.85-2.82-1.22-4.17l-1.1-4.04ZM131.34,4.83c1.04-1.47,2.53-1.83,4.04-1.16.43.19,1.19-.75.98-1.1-.73-1.26-2.3-1.25-3.41-.57-3.08,1.9-3.77,5.82-3.48,9.22.57-2.21.51-4.48,1.86-6.39ZM125.74,23.8c.68-.39.01-.74.12-1.14-1.76-3.27-2.18-6.73-3.15-10.44-.14,4.12,1.28,7.96,3.03,11.58ZM115.01,42.64c-.22.39.05.91.29.91.31,0,.78.22,1.08-.04,1.3-1.08,2.16-2.73,2.23-4.48l-1.43,2.69c-.45.9-1.25.91-2.17.91Z"/>
      <path class="cls-1" d="M113.68,39.28c-.11.49-.46.81-.64,1.18-.52,1.07-.99,1.93-2,2.69-.45.34-.91,1.11-1.56,1.21-.13.02-.2.46-.23.57-.04.21-.45-.1-.58-.02-.75.51-1.47.44-2.22.58-1.17.23-2.23.71-3.37.5-2.42-.45-4.21-1.75-5.78-3.56-2.42-2.79-3.65-6.2-3.77-9.87-.17-5.19,1.09-11.45,3.32-16.17.89-1.87,2.2-3.36,3.35-5.06,1.82-2.69,3.12-6.06,8.13-4.59,2.14.63,4.09,1.65,5.28,3.68.2.34.62.55.63,1.09,0,.22.26.43.39.51.76.52,1.16-1.25,3.15-.68.49.14.83,1.05.8,1.52-.03.64-.36,1.26-.9,1.7-1.71,1.42-1.82.49-1.66,3.41.23,4.25-.75,14.17-1.68,18.3l-.67,3ZM110.47,13.24c-.16-2.06-3.43-3.23-4.5-3.1s-1.99,1.22-1.59,2.31c.33.89,5.14,1.19,6.09.79ZM113.94,14.56c-2.26.02-4.04.9-5.99.33-1.08-.08-2.06-.8-3.22-.45,1.49,1.99,8.14,1.6,9.2.13ZM109.73,21.39c-.23-.06-.45-.31-.58-.24-.12.06-.34.37-.49.35-.44-.07-.85-.48-1.37-.23-.57.28-1.13.14-1.42-.52-.62.11-1.21-.04-1.58-.5-.44-.54-1.04-.19-1.47-.38-.65-.29-1.11-.57-1.89-.44l-1.33-1.22c-.82,1.78-1.05,3.66-1.37,5.57-.43,2.51-.41,4.87-.13,7.42.33,3.01,3.22,7.29,6.87,6.83.78-.1,1.64-1.1,2.07-1.77,2.86-4.44,4.33-9.53,4.83-14.75.02-.26-.07-.46-.23-.58.42.29-1.39-.58-1.9.46ZM100.84,43.72c-2.19-2.17-3.93-4.18-5-6.86-.4-.53-.38-1.27-1.08-1.59.22,2.13,3.49,8.33,6.07,8.45Z"/>
      <path class="cls-1" d="M83.62,44.23c.13.01-1.47,1.23-2.07,1.23-.63,0-.78-.04-1.23.39-.5.48-1.5.21-2.04.52-.77.44-2.48.41-2.6.43-1.69.3-3.04-.05-4.49-.89-1.35-.78-2.77-1.52-3.5-3.03-.9-1.86-.57-4.02.53-5.78,1.51-2.43.77-2.09,2.68-5.03l4.45-6.86c2.23-3.44,4.07-7.04,4.43-11.17-1.36.09-2.69.32-3.74-.44-.44-.32-.15-1.28.14-1.65.94-1.2,2.09-1.94,3.4-2.68.98-.56,2.24-.61,3.37-.55.09,0,2.94,1.63,2.71,1.57,1.42.35,3.07.08,4.25,1.1.49.43,1.39.74,1.63,1.32.19.46.47.66.71,1.07.75,1.31.85,3.08.44,4.53-.7,2.44-1.65,3.12-3.29,5.02,1.57,1.19,2.26,3.07,2.21,5.13-.07,2.93-.48,5.81-1.36,8.55-.41,1.29-1.18,2.26-1.91,3.31-.58.83-1.05,1.64-2.07,2.08-.32.14-.42.83-.7.91-1.89.59-.46,1.03-1.96.91ZM83.3,9.82c-.89-.57-2-.49-2.98.05l-2.62,1.45c-.47.26-.92.75-.66,1.36,2.24-2.23,3.05-2.55,6.26-2.85ZM87.77,12.01c2.62,1.25,3.46,3.58,3.68,6.28,1.53-1.55-1.17-7.78-3.68-6.28ZM87.38,17.31c.38-1.19.1-2.29-.81-2.99-1.15,2.7-2.53,5.01-4.36,7.4,2.46-.36,4.42-2.09,5.16-4.41ZM77.02,38.91c1-.04,1.84-.4,2.8-.67,1.64-.46,3.51-.61,4.75-1.92,2.15-2.25,3.2-5.42,3.39-8.49.06-.94-.5-1.89-1.15-2.39s-1.26.09-1.82.27c-2.52.79-2.48.88-5.36.49-.54.63-1.84,5.19-1.9,5.61l-.52,3.46c-.17,1.1-.25,2.51-.18,3.64ZM70.62,36.75c.31-2.3,1.71-3.98,2.4-6.32-1.06.79-4,6.07-2.93,6.73.13.08.5-.19.53-.41ZM82.23,43.81c1.3-.84,7.34-5.16,6.48-7.05-1.37,2.13-3.01,3.6-4.8,5.09-3.91,3.23-6.34,1.09-6.49,2.61-.13,1.31,3.31.33,4.81-.65Z"/>
      <path class="cls-1" d="M18.46,20.79c-1.43.84-5.63,4.95-4.47,6.4,1.12,1.4,3.15-.51,3.73-.93,1.39-1.01,4.45-3.62,6.06-2.16.65.58,1.3.99,1.34,1.71.04.84.01,1.61-.77,2.2-.35.27-.67.87-1.04,1.07-.79.41-1.29.78-1.83,1.42-1,1.19-5.16,2.18-6.99,1.38-2.28-1-3.93-1.43-4.67-3.85-2.57,1.78-5.63,3.37-8.35,1.24C.59,28.59-.02,27.87,0,26.63c.12-6.97,7.09-9.05,11.16-13.13-1.19.18-2.83-.07-3.32-1.24-.66-1.57,1.84-3.44,2.8-4.2,1.83-1.46,3.92-2.62,6.35-2.72,1.8-.08,3.2,1.61,3.26,2.06.32,2.18-1.01,2.1-1.82,3.23-.78,1.09-1.81,1.92-2.76,2.85-4.62,4.54-5.16,4.51-8.94,10.15-.59.88-1.04,1.76-1.19,2.76,1.91-.18,2.68-1.04,4.5-1.48,1.7-2.94,4.03-4,6.91-5.64-.59-2.22,1.91-5.93,3.12-7.74,1.23-1.84,3.41-3.9,5.65-2.36.61.42,1.13.56,1.31,1.42.39,1.86-2.2,4.67-3.52,4.42-.39-.07-.73-.38-1.1-.9-.74,1.14-1.61,2.2-2.13,3.54,2.26-.02,1.4-.81,3.67.84-.21,2.02-3.52,3.03-5.47,2.3ZM15.49,7.21c.58-.27,1.22-.12,1.91-.5-1.2-1.01-9.87,3.85-8.13,5,.98.65,1.72-2.44,6.22-4.51ZM24.77,13.63c1.2-.97,1.1-2.76-.03-3.65-.14-.11-.32-.14-.44-.12-.84.1.95.83.68,2.01-.22.97-1.35,1.15-1.06,1.7.08.16.53.33.85.07ZM2.56,28.24c-2.7-2.48.3-5.62,1.23-8.03-1.33.38-4.6,8.32-1.23,8.03Z"/>
    </g>
  </g>
</svg>